<svg width="128" height="128" viewBox="0 0 128 128" fill="none" xmlns="http://www.w3.org/2000/svg">
<g filter="url(#filter0_d_303_73)">
<mask id="path-1-outside-1_303_73" maskUnits="userSpaceOnUse" x="22.637" y="17.7313" width="90" height="99" fill="black">
<rect fill="white" x="22.637" y="17.7313" width="90" height="99"/>
<path d="M111.04 55.5495H85.4037C85.2219 53.4283 84.7371 51.504 83.9492 49.7768C83.1916 48.0495 82.131 46.5647 80.7674 45.3222C79.434 44.0495 77.8128 43.0798 75.9037 42.4131C73.9946 41.7162 71.828 41.3677 69.4037 41.3677C65.1613 41.3677 61.5704 42.398 58.631 44.4586C55.7219 46.5192 53.5098 49.4737 51.9946 53.3222C50.5098 57.1707 49.7674 61.7919 49.7674 67.1859C49.7674 72.8828 50.5249 77.6556 52.0401 81.5041C53.5855 85.3222 55.8128 88.201 58.7219 90.1404C61.631 92.0495 65.131 93.004 69.2219 93.004C71.5552 93.004 73.6462 92.7162 75.4946 92.1404C77.3431 91.5344 78.9492 90.6707 80.3128 89.5495C81.6765 88.4283 82.7825 87.0798 83.631 85.504C84.5098 83.898 85.1007 82.095 85.4037 80.095L111.04 80.2768C110.737 84.2162 109.631 88.2313 107.722 92.3222C105.813 96.3828 103.101 100.14 99.5855 103.595C96.1007 107.019 91.7825 109.777 86.631 111.868C81.4795 113.959 75.4946 115.004 68.6765 115.004C60.131 115.004 52.4643 113.171 45.6765 109.504C38.9189 105.837 33.5704 100.443 29.631 93.3222C25.7219 86.201 23.7674 77.4889 23.7674 67.1859C23.7674 56.8222 25.7674 48.095 29.7674 41.0041C33.7674 33.8828 39.1613 28.504 45.9492 24.8677C52.7371 21.201 60.3128 19.3677 68.6765 19.3677C74.5552 19.3677 79.9643 20.1707 84.9037 21.7768C89.8431 23.3828 94.1765 25.7313 97.9037 28.8222C101.631 31.8828 104.631 35.6556 106.904 40.1404C109.176 44.6253 110.555 49.7616 111.04 55.5495Z"/>
</mask>
<path d="M111.04 55.5495H85.4037C85.2219 53.4283 84.7371 51.504 83.9492 49.7768C83.1916 48.0495 82.131 46.5647 80.7674 45.3222C79.434 44.0495 77.8128 43.0798 75.9037 42.4131C73.9946 41.7162 71.828 41.3677 69.4037 41.3677C65.1613 41.3677 61.5704 42.398 58.631 44.4586C55.7219 46.5192 53.5098 49.4737 51.9946 53.3222C50.5098 57.1707 49.7674 61.7919 49.7674 67.1859C49.7674 72.8828 50.5249 77.6556 52.0401 81.5041C53.5855 85.3222 55.8128 88.201 58.7219 90.1404C61.631 92.0495 65.131 93.004 69.2219 93.004C71.5552 93.004 73.6462 92.7162 75.4946 92.1404C77.3431 91.5344 78.9492 90.6707 80.3128 89.5495C81.6765 88.4283 82.7825 87.0798 83.631 85.504C84.5098 83.898 85.1007 82.095 85.4037 80.095L111.04 80.2768C110.737 84.2162 109.631 88.2313 107.722 92.3222C105.813 96.3828 103.101 100.14 99.5855 103.595C96.1007 107.019 91.7825 109.777 86.631 111.868C81.4795 113.959 75.4946 115.004 68.6765 115.004C60.131 115.004 52.4643 113.171 45.6765 109.504C38.9189 105.837 33.5704 100.443 29.631 93.3222C25.7219 86.201 23.7674 77.4889 23.7674 67.1859C23.7674 56.8222 25.7674 48.095 29.7674 41.0041C33.7674 33.8828 39.1613 28.504 45.9492 24.8677C52.7371 21.201 60.3128 19.3677 68.6765 19.3677C74.5552 19.3677 79.9643 20.1707 84.9037 21.7768C89.8431 23.3828 94.1765 25.7313 97.9037 28.8222C101.631 31.8828 104.631 35.6556 106.904 40.1404C109.176 44.6253 110.555 49.7616 111.04 55.5495Z" fill="#66FFFF"/>
<path d="M111.04 55.5495V56.5495H112.127L112.037 55.466L111.04 55.5495ZM85.4037 55.5495L84.4074 55.6349L84.4858 56.5495H85.4037V55.5495ZM83.9492 49.7768L83.0334 50.1784L83.0363 50.1851L83.0394 50.1918L83.9492 49.7768ZM80.7674 45.3222L80.0769 46.0456L80.0853 46.0536L80.0939 46.0614L80.7674 45.3222ZM75.9037 42.4131L75.5608 43.3526L75.574 43.3572L75.9037 42.4131ZM58.631 44.4586L58.057 43.6398L58.053 43.6426L58.631 44.4586ZM51.9946 53.3222L51.0641 52.9559L51.0617 52.9623L51.9946 53.3222ZM52.0401 81.5041L51.1096 81.8704L51.1131 81.8792L52.0401 81.5041ZM58.7219 90.1404L58.1672 90.9725L58.1733 90.9765L58.7219 90.1404ZM75.4946 92.1404L75.792 93.0952L75.7991 93.093L75.8062 93.0906L75.4946 92.1404ZM80.3128 89.5495L80.9479 90.3219L80.9479 90.3219L80.3128 89.5495ZM83.631 85.504L82.7537 85.024L82.7505 85.0299L83.631 85.504ZM85.4037 80.095L85.4108 79.095L84.5448 79.0888L84.415 79.9452L85.4037 80.095ZM111.04 80.2768L112.037 80.3535L112.119 79.2844L111.047 79.2768L111.04 80.2768ZM107.722 92.3222L108.627 92.7477L108.628 92.7451L107.722 92.3222ZM99.5855 103.595L100.286 104.308L100.286 104.308L99.5855 103.595ZM86.631 111.868L86.2549 110.941L86.631 111.868ZM45.6765 109.504L45.1995 110.383L45.2012 110.384L45.6765 109.504ZM29.631 93.3222L28.7544 93.8034L28.756 93.8063L29.631 93.3222ZM29.7674 41.0041L30.6383 41.4954L30.6392 41.4938L29.7674 41.0041ZM45.9492 24.8677L46.4214 25.7492L46.4245 25.7475L45.9492 24.8677ZM84.9037 21.7768L85.213 20.8258L85.213 20.8258L84.9037 21.7768ZM97.9037 28.8222L97.2654 29.592L97.2691 29.5951L97.9037 28.8222ZM106.904 40.1404L106.012 40.5924L106.012 40.5924L106.904 40.1404ZM111.04 54.5495H85.4037V56.5495H111.04V54.5495ZM86.4001 55.4641C86.2097 53.2426 85.6998 51.205 84.859 49.3618L83.0394 50.1918C83.7744 51.8031 84.2342 53.614 84.4074 55.6349L86.4001 55.4641ZM84.865 49.3751C84.0525 47.5226 82.9104 45.9219 81.4409 44.583L80.0939 46.0614C81.3517 47.2074 82.3308 48.5764 83.0334 50.1784L84.865 49.3751ZM81.4578 44.5989C80.0117 43.2185 78.2639 42.1781 76.2334 41.469L75.574 43.3572C77.3617 43.9815 78.8564 44.8805 80.0769 46.0456L81.4578 44.5989ZM76.2467 41.4738C74.2088 40.7298 71.923 40.3677 69.4037 40.3677V42.3677C71.733 42.3677 73.7805 42.7025 75.5608 43.3525L76.2467 41.4738ZM69.4037 40.3677C64.9942 40.3677 61.1934 41.441 58.057 43.6398L59.205 45.2774C61.9474 43.355 65.3284 42.3677 69.4037 42.3677V40.3677ZM58.053 43.6426C54.961 45.8327 52.6389 48.9561 51.0642 52.9559L52.9251 53.6886C54.3807 49.9914 56.4828 47.2057 59.209 45.2746L58.053 43.6426ZM51.0617 52.9623C49.5212 56.9549 48.7674 61.7047 48.7674 67.1859H50.7674C50.7674 61.8791 51.4984 57.3865 52.9276 53.6822L51.0617 52.9623ZM48.7674 67.1859C48.7674 72.9641 49.5347 77.8702 51.1096 81.8704L52.9706 81.1377C51.5151 77.4409 50.7674 72.8016 50.7674 67.1859H48.7674ZM51.1131 81.8792C52.7202 85.8497 55.0629 88.9029 58.1672 90.9725L59.2766 89.3084C56.5627 87.4991 54.4509 84.7948 52.967 81.1289L51.1131 81.8792ZM58.1733 90.9765C61.2723 93.0102 64.971 94.004 69.2219 94.004V92.004C65.291 92.004 61.9897 91.0888 59.2706 89.3044L58.1733 90.9765ZM69.2219 94.004C71.6361 94.004 73.8299 93.7063 75.792 93.0952L75.1973 91.1857C73.4624 91.726 71.4744 92.004 69.2219 92.004V94.004ZM75.8062 93.0906C77.7606 92.4499 79.4791 91.5296 80.9479 90.3219L79.6777 88.7771C78.4193 89.8118 76.9256 90.6189 75.1831 91.1902L75.8062 93.0906ZM80.9479 90.3219C82.4134 89.117 83.6022 87.6667 84.5115 85.9781L82.7505 85.0299C81.9628 86.4929 80.9395 87.7396 79.6777 88.7771L80.9479 90.3219ZM84.5083 85.9841C85.4488 84.2651 86.0737 82.3484 86.3924 80.2448L84.415 79.9452C84.1277 81.8415 83.5707 83.5309 82.7537 85.024L84.5083 85.9841ZM85.3966 81.0949L111.033 81.2768L111.047 79.2768L85.4108 79.095L85.3966 81.0949ZM110.043 80.2001C109.75 84.0037 108.681 87.9021 106.816 91.8993L108.628 92.7451C110.581 88.5606 111.724 84.4286 112.037 80.3535L110.043 80.2001ZM106.817 91.8968C104.963 95.8401 102.324 99.5021 98.8846 102.882L100.286 104.308C103.878 100.779 106.663 96.9256 108.627 92.7477L106.817 91.8968ZM98.8847 102.882C95.5051 106.202 91.3019 108.893 86.2549 110.941L87.0071 112.794C92.2632 110.661 96.6963 107.836 100.286 104.308L98.8847 102.882ZM86.2549 110.941C81.2466 112.974 75.394 114.004 68.6765 114.004V116.004C75.5952 116.004 81.7124 114.943 87.0071 112.794L86.2549 110.941ZM68.6765 114.004C60.2787 114.004 52.7784 112.204 46.1517 108.624L45.2012 110.384C52.1503 114.138 59.9833 116.004 68.6765 116.004V114.004ZM46.1534 108.625C39.5734 105.055 34.3588 99.8027 30.506 92.8382L28.756 93.8063C32.782 101.084 38.2643 106.62 45.1995 110.383L46.1534 108.625ZM30.5076 92.841C26.6984 85.9017 24.7674 77.3649 24.7674 67.1859H22.7674C22.7674 77.6129 24.7455 86.5003 28.7544 93.8034L30.5076 92.841ZM24.7674 67.1859C24.7674 56.9483 26.743 48.4008 30.6383 41.4954L28.8964 40.5127C24.7917 47.7891 22.7674 56.6961 22.7674 67.1859H24.7674ZM30.6392 41.4938C34.5519 34.528 39.8117 29.2901 46.4214 25.7492L45.477 23.9862C38.511 27.718 32.9828 33.2377 28.8955 40.5143L30.6392 41.4938ZM46.4245 25.7475C53.0542 22.1663 60.4645 20.3677 68.6765 20.3677V18.3677C60.1612 18.3677 52.4199 20.2358 45.4739 23.9878L46.4245 25.7475ZM68.6765 20.3677C74.4639 20.3677 79.7672 21.1581 84.5945 22.7278L85.213 20.8258C80.1615 19.1833 74.6466 18.3677 68.6765 18.3677V20.3677ZM84.5945 22.7278C89.4225 24.2976 93.6423 26.5874 97.2654 29.592L98.5421 28.0525C94.7106 24.8752 90.2637 22.4681 85.213 20.8258L84.5945 22.7278ZM97.2691 29.5951C100.885 32.564 103.799 36.2258 106.012 40.5924L107.796 39.6884C105.463 35.0853 102.377 31.2017 98.5383 28.0494L97.2691 29.5951ZM106.012 40.5924C108.218 44.9459 109.568 49.9538 110.044 55.633L112.037 55.466C111.543 49.5694 110.135 44.3046 107.796 39.6884L106.012 40.5924Z" fill="black" mask="url(#path-1-outside-1_303_73)"/>
</g>
<g filter="url(#filter1_d_303_73)">
<mask id="path-3-outside-2_303_73" maskUnits="userSpaceOnUse" x="16" y="12" width="90" height="99" fill="black">
<rect fill="white" x="16" y="12" width="90" height="99"/>
<path d="M104.403 49.8182H78.7667C78.5849 47.697 78.1 45.7727 77.3122 44.0455C76.5546 42.3182 75.494 40.8333 74.1303 39.5909C72.797 38.3182 71.1758 37.3485 69.2667 36.6818C67.3576 35.9848 65.191 35.6364 62.7667 35.6364C58.5243 35.6364 54.9334 36.6667 51.994 38.7273C49.0849 40.7879 46.8728 43.7424 45.3576 47.5909C43.8728 51.4394 43.1303 56.0606 43.1303 61.4545C43.1303 67.1515 43.8879 71.9242 45.4031 75.7727C46.9485 79.5909 49.1758 82.4697 52.0849 84.4091C54.994 86.3182 58.494 87.2727 62.5849 87.2727C64.9182 87.2727 67.0091 86.9848 68.8576 86.4091C70.7061 85.803 72.3122 84.9394 73.6758 83.8182C75.0394 82.697 76.1455 81.3485 76.994 79.7727C77.8728 78.1667 78.4637 76.3636 78.7667 74.3636L104.403 74.5455C104.1 78.4848 102.994 82.5 101.085 86.5909C99.1758 90.6515 96.4637 94.4091 92.9485 97.8636C89.4637 101.288 85.1455 104.045 79.994 106.136C74.8425 108.227 68.8576 109.273 62.0394 109.273C53.494 109.273 45.8273 107.439 39.0394 103.773C32.2819 100.106 26.9334 94.7121 22.994 87.5909C19.0849 80.4697 17.1303 71.7576 17.1303 61.4545C17.1303 51.0909 19.1303 42.3636 23.1303 35.2727C27.1303 28.1515 32.5243 22.7727 39.3122 19.1364C46.1 15.4697 53.6758 13.6364 62.0394 13.6364C67.9182 13.6364 73.3273 14.4394 78.2667 16.0454C83.2061 17.6515 87.5394 20 91.2667 23.0909C94.994 26.1515 97.994 29.9242 100.267 34.4091C102.539 38.8939 103.918 44.0303 104.403 49.8182Z"/>
</mask>
<path d="M104.403 49.8182H78.7667C78.5849 47.697 78.1 45.7727 77.3122 44.0455C76.5546 42.3182 75.494 40.8333 74.1303 39.5909C72.797 38.3182 71.1758 37.3485 69.2667 36.6818C67.3576 35.9848 65.191 35.6364 62.7667 35.6364C58.5243 35.6364 54.9334 36.6667 51.994 38.7273C49.0849 40.7879 46.8728 43.7424 45.3576 47.5909C43.8728 51.4394 43.1303 56.0606 43.1303 61.4545C43.1303 67.1515 43.8879 71.9242 45.4031 75.7727C46.9485 79.5909 49.1758 82.4697 52.0849 84.4091C54.994 86.3182 58.494 87.2727 62.5849 87.2727C64.9182 87.2727 67.0091 86.9848 68.8576 86.4091C70.7061 85.803 72.3122 84.9394 73.6758 83.8182C75.0394 82.697 76.1455 81.3485 76.994 79.7727C77.8728 78.1667 78.4637 76.3636 78.7667 74.3636L104.403 74.5455C104.1 78.4848 102.994 82.5 101.085 86.5909C99.1758 90.6515 96.4637 94.4091 92.9485 97.8636C89.4637 101.288 85.1455 104.045 79.994 106.136C74.8425 108.227 68.8576 109.273 62.0394 109.273C53.494 109.273 45.8273 107.439 39.0394 103.773C32.2819 100.106 26.9334 94.7121 22.994 87.5909C19.0849 80.4697 17.1303 71.7576 17.1303 61.4545C17.1303 51.0909 19.1303 42.3636 23.1303 35.2727C27.1303 28.1515 32.5243 22.7727 39.3122 19.1364C46.1 15.4697 53.6758 13.6364 62.0394 13.6364C67.9182 13.6364 73.3273 14.4394 78.2667 16.0454C83.2061 17.6515 87.5394 20 91.2667 23.0909C94.994 26.1515 97.994 29.9242 100.267 34.4091C102.539 38.8939 103.918 44.0303 104.403 49.8182Z" fill="#66FFFF"/>
<path d="M104.403 49.8182V50.8182H105.49L105.4 49.7347L104.403 49.8182ZM78.7667 49.8182L77.7704 49.9036L77.8488 50.8182H78.7667V49.8182ZM77.3122 44.0455L76.3964 44.4471L76.3993 44.4538L76.4023 44.4605L77.3122 44.0455ZM74.1303 39.5909L73.4399 40.3143L73.4483 40.3223L73.4569 40.3301L74.1303 39.5909ZM69.2667 36.6818L68.9237 37.6213L68.937 37.6259L69.2667 36.6818ZM51.994 38.7273L51.4199 37.9084L51.416 37.9112L51.994 38.7273ZM45.3576 47.5909L44.4271 47.2246L44.4246 47.2309L45.3576 47.5909ZM45.4031 75.7727L44.4725 76.1391L44.4761 76.1479L45.4031 75.7727ZM52.0849 84.4091L51.5302 85.2412L51.5362 85.2451L52.0849 84.4091ZM68.8576 86.4091L69.155 87.3638L69.1621 87.3616L69.1692 87.3593L68.8576 86.4091ZM73.6758 83.8182L74.3109 84.5906L74.3109 84.5906L73.6758 83.8182ZM76.994 79.7727L76.1167 79.2927L76.1135 79.2986L76.994 79.7727ZM78.7667 74.3636L78.7738 73.3637L77.9077 73.3575L77.778 74.2138L78.7667 74.3636ZM104.403 74.5455L105.4 74.6221L105.482 73.5531L104.41 73.5455L104.403 74.5455ZM101.085 86.5909L101.99 87.0164L101.991 87.0138L101.085 86.5909ZM92.9485 97.8636L93.6494 98.5769L93.6495 98.5769L92.9485 97.8636ZM79.994 106.136L79.6179 105.21L79.994 106.136ZM39.0394 103.773L38.5625 104.652L38.5642 104.653L39.0394 103.773ZM22.994 87.5909L22.1174 88.0721L22.1189 88.075L22.994 87.5909ZM23.1303 35.2727L24.0013 35.7641L24.0022 35.7625L23.1303 35.2727ZM39.3122 19.1364L39.7844 20.0178L39.7874 20.0162L39.3122 19.1364ZM78.2667 16.0454L78.5759 15.0945L78.5759 15.0945L78.2667 16.0454ZM91.2667 23.0909L90.6284 23.8607L90.6321 23.8637L91.2667 23.0909ZM100.267 34.4091L99.3747 34.8611L99.3747 34.8611L100.267 34.4091ZM104.403 48.8182H78.7667V50.8182H104.403V48.8182ZM79.7631 49.7328C79.5726 47.5113 79.0627 45.4737 78.222 43.6304L76.4023 44.4605C77.1373 46.0718 77.5971 47.8827 77.7704 49.9036L79.7631 49.7328ZM78.228 43.6438C77.4154 41.7912 76.2733 40.1906 74.8038 38.8517L73.4569 40.3301C74.7146 41.4761 75.6937 42.8451 76.3964 44.4471L78.228 43.6438ZM74.8208 38.8675C73.3747 37.4871 71.6269 36.4468 69.5964 35.7377L68.937 37.6259C70.7247 38.2502 72.2193 39.1492 73.4399 40.3143L74.8208 38.8675ZM69.6096 35.7425C67.5718 34.9985 65.286 34.6364 62.7667 34.6364V36.6364C65.0959 36.6364 67.1435 36.9712 68.9238 37.6212L69.6096 35.7425ZM62.7667 34.6364C58.3572 34.6364 54.5564 35.7097 51.42 37.9084L52.568 39.5461C55.3104 37.6236 58.6914 36.6364 62.7667 36.6364V34.6364ZM51.416 37.9112C48.324 40.1014 46.0019 43.2248 44.4271 47.2246L46.2881 47.9572C47.7437 44.2601 49.8458 41.4744 52.572 39.5433L51.416 37.9112ZM44.4246 47.2309C42.8842 51.2236 42.1303 55.9734 42.1303 61.4545H44.1303C44.1303 56.1478 44.8614 51.6552 46.2906 47.9509L44.4246 47.2309ZM42.1303 61.4545C42.1303 67.2328 42.8977 72.1389 44.4726 76.1391L46.3336 75.4064C44.8781 71.7096 44.1303 67.0702 44.1303 61.4545H42.1303ZM44.4761 76.1479C46.0832 80.1184 48.4259 83.1716 51.5302 85.2411L52.6396 83.577C49.9257 81.7678 47.8138 79.0634 46.33 75.3975L44.4761 76.1479ZM51.5362 85.2451C54.6353 87.2789 58.334 88.2727 62.5849 88.2727V86.2727C58.654 86.2727 55.3527 85.3575 52.6335 83.573L51.5362 85.2451ZM62.5849 88.2727C64.9991 88.2727 67.1929 87.975 69.155 87.3638L68.5602 85.4543C66.8254 85.9947 64.8374 86.2727 62.5849 86.2727V88.2727ZM69.1692 87.3593C71.1236 86.7185 72.8421 85.7983 74.3109 84.5906L73.0407 83.0458C71.7823 84.0805 70.2886 84.8875 68.5461 85.4589L69.1692 87.3593ZM74.3109 84.5906C75.7763 83.3857 76.9652 81.9354 77.8745 80.2468L76.1135 79.2986C75.3258 80.7616 74.3025 82.0083 73.0407 83.0458L74.3109 84.5906ZM77.8712 80.2527C78.8118 78.5338 79.4367 76.6171 79.7554 74.5134L77.778 74.2138C77.4907 76.1102 76.9337 77.7996 76.1167 79.2927L77.8712 80.2527ZM78.7596 75.3636L104.396 75.5454L104.41 73.5455L78.7738 73.3637L78.7596 75.3636ZM103.406 74.4688C103.113 78.2724 102.044 82.1707 100.179 86.168L101.991 87.0138C103.944 82.8293 105.087 78.6973 105.4 74.6221L103.406 74.4688ZM100.18 86.1654C98.326 90.1087 95.6865 93.7708 92.2476 97.1504L93.6495 98.5769C97.2408 95.0474 100.026 91.1943 101.99 87.0164L100.18 86.1654ZM92.2476 97.1504C88.8681 100.471 84.6649 103.161 79.6179 105.21L80.3701 107.063C85.6261 104.93 90.0593 102.105 93.6494 98.5769L92.2476 97.1504ZM79.6179 105.21C74.6095 107.243 68.757 108.273 62.0394 108.273V110.273C68.9582 110.273 75.0754 109.212 80.3701 107.063L79.6179 105.21ZM62.0394 108.273C53.6417 108.273 46.1414 106.472 39.5147 102.893L38.5642 104.653C45.5133 108.406 53.3463 110.273 62.0394 110.273V108.273ZM39.5164 102.894C32.9364 99.3235 27.7217 94.0714 23.869 87.1068L22.1189 88.075C26.145 95.3528 31.6273 100.889 38.5625 104.652L39.5164 102.894ZM23.8706 87.1097C20.0613 80.1704 18.1303 71.6335 18.1303 61.4545H16.1303C16.1303 71.8816 18.1084 80.769 22.1174 88.0721L23.8706 87.1097ZM18.1303 61.4545C18.1303 51.217 20.106 42.6694 24.0013 35.764L22.2594 34.7814C18.1547 42.0578 16.1303 50.9648 16.1303 61.4545H18.1303ZM24.0022 35.7625C27.9149 28.7967 33.1746 23.5588 39.7844 20.0178L38.8399 18.2549C31.8739 21.9867 26.3458 27.5064 22.2585 34.783L24.0022 35.7625ZM39.7874 20.0162C46.4172 16.4349 53.8274 14.6364 62.0394 14.6364V12.6364C53.5242 12.6364 45.7829 14.5045 38.8369 18.2565L39.7874 20.0162ZM62.0394 14.6364C67.8269 14.6364 73.1302 15.4268 77.9575 16.9964L78.5759 15.0945C73.5245 13.452 68.0096 12.6364 62.0394 12.6364V14.6364ZM77.9575 16.9964C82.7855 18.5663 87.0053 20.8561 90.6284 23.8607L91.905 22.3211C88.0736 19.1439 83.6267 16.7367 78.5759 15.0945L77.9575 16.9964ZM90.6321 23.8637C94.2477 26.8327 97.1619 30.4945 99.3747 34.8611L101.159 33.9571C98.8261 29.354 95.7402 25.4704 91.9013 22.3181L90.6321 23.8637ZM99.3747 34.8611C101.581 39.2146 102.931 44.2225 103.407 49.9017L105.4 49.7347C104.906 43.8381 103.498 38.5733 101.159 33.9571L99.3747 34.8611Z" fill="black" mask="url(#path-3-outside-2_303_73)"/>
</g>
<defs>
<filter id="filter0_d_303_73" x="19.7674" y="19.3677" width="95.2727" height="103.636" filterUnits="userSpaceOnUse" color-interpolation-filters="sRGB">
<feFlood flood-opacity="0" result="BackgroundImageFix"/>
<feColorMatrix in="SourceAlpha" type="matrix" values="0 0 0 0 0 0 0 0 0 0 0 0 0 0 0 0 0 0 127 0" result="hardAlpha"/>
<feOffset dy="4"/>
<feGaussianBlur stdDeviation="2"/>
<feComposite in2="hardAlpha" operator="out"/>
<feColorMatrix type="matrix" values="0 0 0 0 0 0 0 0 0 0 0 0 0 0 0 0 0 0 0.25 0"/>
<feBlend mode="normal" in2="BackgroundImageFix" result="effect1_dropShadow_303_73"/>
<feBlend mode="normal" in="SourceGraphic" in2="effect1_dropShadow_303_73" result="shape"/>
</filter>
<filter id="filter1_d_303_73" x="13.1304" y="13.6364" width="95.2727" height="103.636" filterUnits="userSpaceOnUse" color-interpolation-filters="sRGB">
<feFlood flood-opacity="0" result="BackgroundImageFix"/>
<feColorMatrix in="SourceAlpha" type="matrix" values="0 0 0 0 0 0 0 0 0 0 0 0 0 0 0 0 0 0 127 0" result="hardAlpha"/>
<feOffset dy="4"/>
<feGaussianBlur stdDeviation="2"/>
<feComposite in2="hardAlpha" operator="out"/>
<feColorMatrix type="matrix" values="0 0 0 0 0 0 0 0 0 0 0 0 0 0 0 0 0 0 0.25 0"/>
<feBlend mode="normal" in2="BackgroundImageFix" result="effect1_dropShadow_303_73"/>
<feBlend mode="normal" in="SourceGraphic" in2="effect1_dropShadow_303_73" result="shape"/>
</filter>
</defs>
</svg>
